<svg width="319" height="75" viewBox="0 0 319 75" fill="none" xmlns="http://www.w3.org/2000/svg">
<path d="M0.295704 73V2.7H9.7957L13.8957 16.3V73H0.295704ZM48.8957 73L7.1957 19L9.7957 2.7L51.4957 56.7L48.8957 73ZM48.8957 73L44.9957 59.8V2.7H58.6957V73H48.8957ZM90.752 74C86.352 74 82.3853 72.9 78.852 70.7C75.3186 68.5 72.552 65.5 70.552 61.7C68.552 57.9 67.552 53.6333 67.552 48.9C67.552 44.1 68.552 39.8 70.552 36C72.552 32.2 75.3186 29.2 78.852 27C82.3853 24.8 86.352 23.7 90.752 23.7C94.2186 23.7 97.3186 24.4 100.052 25.8C102.785 27.2 104.952 29.1667 106.552 31.7C108.219 34.1667 109.119 36.9667 109.252 40.1V57.5C109.119 60.7 108.219 63.5333 106.552 66C104.952 68.4667 102.785 70.4333 100.052 71.9C97.3186 73.3 94.2186 74 90.752 74ZM93.152 61.9C96.8186 61.9 99.7853 60.7 102.052 58.3C104.319 55.8333 105.452 52.6667 105.452 48.8C105.452 46.2667 104.919 44.0333 103.852 42.1C102.852 40.1 101.419 38.5667 99.552 37.5C97.752 36.3667 95.6186 35.8 93.152 35.8C90.752 35.8 88.6186 36.3667 86.752 37.5C84.952 38.5667 83.5186 40.1 82.452 42.1C81.452 44.0333 80.952 46.2667 80.952 48.8C80.952 51.4 81.452 53.7 82.452 55.7C83.5186 57.6333 84.952 59.1667 86.752 60.3C88.6186 61.3667 90.752 61.9 93.152 61.9ZM104.752 73V60L106.852 48.2L104.752 36.6V24.7H117.752V73H104.752ZM124.941 65.5L150.541 32.2H166.341L140.741 65.5H124.941ZM124.941 73V65.5L135.341 61.6H165.741V73H124.941ZM126.741 36.1V24.7H166.341V32.2L155.841 36.1H126.741ZM173.923 73V24.7H187.123V73H173.923ZM180.523 16.9C178.39 16.9 176.623 16.2 175.223 14.8C173.823 13.3333 173.123 11.5333 173.123 9.4C173.123 7.33333 173.823 5.56666 175.223 4.1C176.623 2.63333 178.39 1.9 180.523 1.9C182.723 1.9 184.49 2.63333 185.823 4.1C187.223 5.56666 187.923 7.33333 187.923 9.4C187.923 11.5333 187.223 13.3333 185.823 14.8C184.49 16.2 182.723 16.9 180.523 16.9ZM214.328 74.1C211.594 74.1 208.894 73.7333 206.228 73C203.628 72.2667 201.228 71.2667 199.028 70C196.828 68.6667 194.928 67.0667 193.328 65.2L201.128 57.3C202.794 59.1667 204.728 60.5667 206.928 61.5C209.128 62.4333 211.561 62.9 214.228 62.9C216.361 62.9 217.961 62.6 219.028 62C220.161 61.4 220.728 60.5 220.728 59.3C220.728 57.9667 220.128 56.9333 218.928 56.2C217.794 55.4667 216.294 54.8667 214.428 54.4C212.561 53.8667 210.594 53.3 208.528 52.7C206.528 52.0333 204.594 51.2 202.728 50.2C200.861 49.1333 199.328 47.7 198.128 45.9C196.994 44.0333 196.428 41.6333 196.428 38.7C196.428 35.6333 197.161 32.9667 198.628 30.7C200.161 28.4333 202.328 26.6667 205.128 25.4C207.928 24.1333 211.228 23.5 215.028 23.5C219.028 23.5 222.628 24.2 225.828 25.6C229.094 27 231.794 29.1 233.928 31.9L226.028 39.8C224.561 38 222.894 36.7 221.028 35.9C219.228 35.1 217.261 34.7 215.128 34.7C213.194 34.7 211.694 35 210.628 35.6C209.628 36.2 209.128 37.0333 209.128 38.1C209.128 39.3 209.694 40.2333 210.828 40.9C212.028 41.5667 213.561 42.1667 215.428 42.7C217.294 43.1667 219.228 43.7333 221.228 44.4C223.294 45 225.228 45.8667 227.028 47C228.894 48.1333 230.394 49.6333 231.528 51.5C232.728 53.3667 233.328 55.7667 233.328 58.7C233.328 63.4333 231.628 67.2 228.228 70C224.828 72.7333 220.194 74.1 214.328 74.1ZM273.661 73V45.3C273.661 42.4333 272.761 40.1 270.961 38.3C269.161 36.5 266.828 35.6 263.961 35.6C262.095 35.6 260.428 36 258.961 36.8C257.495 37.6 256.328 38.7333 255.461 40.2C254.661 41.6667 254.261 43.3667 254.261 45.3L249.161 42.7C249.161 38.9 249.961 35.6 251.561 32.8C253.161 29.9333 255.361 27.7 258.161 26.1C261.028 24.5 264.295 23.7 267.961 23.7C271.628 23.7 274.861 24.5 277.661 26.1C280.528 27.7 282.761 29.9 284.361 32.7C285.961 35.5 286.761 38.7333 286.761 42.4V73H273.661ZM241.161 73V0.699995H254.261V73H241.161Z" fill="#030712"/>
<path d="M309.274 74.2C306.394 74.2 304.034 73.24 302.194 71.32C300.354 69.4 299.434 67.04 299.434 64.24C299.434 61.44 300.354 59.08 302.194 57.16C304.034 55.24 306.394 54.28 309.274 54.28C312.074 54.28 314.394 55.24 316.234 57.16C318.074 59.08 318.994 61.44 318.994 64.24C318.994 67.04 318.074 69.4 316.234 71.32C314.394 73.24 312.074 74.2 309.274 74.2Z" fill="#E43D12"/>
</svg>
